<svg width="69" height="82" viewBox="0 0 69 82" fill="none" xmlns="http://www.w3.org/2000/svg">
<path d="M34.3687 81.9406C32.9237 81.9237 31.5038 81.603 30.2259 81.005C28.9479 80.407 27.8483 79.5486 27.0175 78.5006C25.9217 77.2055 0.124023 47.2162 0.124023 31.0682C0.124023 23.018 3.73193 15.2974 10.1541 9.60505C16.5762 3.91267 25.2864 0.714722 34.3687 0.714722C43.4509 0.714722 52.1612 3.91267 58.5833 9.60505C65.0054 15.2974 68.6133 23.018 68.6133 31.0682C68.6133 47.2567 42.8157 77.2055 41.7199 78.5006C40.889 79.5486 39.7895 80.407 38.5115 81.005C37.2335 81.603 35.8137 81.9237 34.3687 81.9406ZM34.3687 4.76185C26.5011 4.77256 18.9592 7.54755 13.396 12.4786C7.83279 17.4097 4.70205 24.0946 4.68998 31.0682C4.68998 45.8402 30.3506 75.5866 30.6246 76.0318C31.0454 76.5662 31.6055 77.0025 32.2574 77.3038C32.9092 77.6052 33.6335 77.7625 34.3687 77.7625C35.1039 77.7625 35.8282 77.6052 36.48 77.3038C37.1319 77.0025 37.692 76.5662 38.1128 76.0318C38.3867 75.708 64.0474 45.8402 64.0474 31.0682C64.0353 24.0946 60.9046 17.4097 55.3414 12.4786C49.7781 7.54755 42.2363 4.77256 34.3687 4.76185Z" fill="#3C79F5"/>
<path d="M4.68977 21.383L16.1047 8.82658L24.6658 4.26063L34.9392 3.11914L45.7834 4.83137L58.3397 12.8218L65.1887 21.383L66.9009 29.3734L65.7594 37.9345L58.3397 52.7739L41.2174 76.1744L33.227 79.5989L26.3781 75.6037L12.1094 54.4861L2.97754 33.9393L4.68977 21.383Z" fill="#3C79F5"/>
</svg>
