<svg width="55" height="55" viewBox="0 0 55 55" fill="none" xmlns="http://www.w3.org/2000/svg">
<path d="M54.4826 27.2906C54.4826 34.4638 51.6331 41.3431 46.5609 46.4153C41.4888 51.4875 34.6094 54.337 27.4363 54.337C20.2631 54.337 13.3838 51.4875 8.31159 46.4153C3.23941 41.3431 0.389894 34.4638 0.389893 27.2906L27.4363 27.2906H54.4826Z" fill="#FF0000"/>
<path d="M0.389674 27.2905C0.389674 20.1174 3.2392 13.2381 8.31137 8.16589C13.3836 3.09371 20.2629 0.244191 27.436 0.244192C34.6092 0.244192 41.4885 3.09371 46.5607 8.16589C51.6329 13.2381 54.4824 20.1174 54.4824 27.2906L27.436 27.2906L0.389674 27.2905Z" fill="white"/>
</svg>
